<svg xmlns="http://www.w3.org/2000/svg" width="50.992" height="79.139" viewBox="0 0 50.992 79.139">
    <g transform="translate(-2194.385 -505.293)">
        <g transform="translate(2211.704 508.119)">
            <path
                d="M2430.25,771.061c-.5-.41-4.387,1.3-4.338,1.9s-2.711,6.368-2.711,6.368l-4.77-3.816h0c-.042-.138-.5-1.622-.517-1.888s-.829-.766-1.2-.694.32.543.366.629c.124.235-.356.324-.356.324s-1.378-.759-1.407-1.205-.314-1.382-.612-1.186c-.154.1-.152.765-.1,1.08-.089-.357-.214-.761-.336-.8-.223-.073-.334.212-.293.351s.4,1.658.51,1.828,2.333,1.966,2.653,2.357c0,0,6.17,7.077,6.609,7.262.385.162,1.76-2.276,3.058-3.9S2431.82,772.341,2430.25,771.061Z"
                transform="translate(-2413.964 -752.866)" fill="#f7a491" />
            <path
                d="M2772.45,1404.38s.848.83.867,1.135.075,3.568-.271,3.873-1.363.521-1.036.863c.247.259,2.147.2,3.407.134.368-.02.829-2.964.974-3.4.212-.628.726-2.044.534-2.482a3.678,3.678,0,0,0-1.173-1.061,5.785,5.785,0,0,1-1.3-1.389Z"
                transform="translate(-2743.706 -1334.152)" fill="#f48c7f" />
            <path
                d="M2629.72,1455.48s.759,2.151.76,2.156c.056.341.279,1.183.279,1.492,0,1.164-5.23-.988-4.058-1.5a1.242,1.242,0,0,0,.474-.816,2.732,2.732,0,0,0-.441-1.375Z"
                transform="translate(-2609.765 -1383.319)" fill="#f7a491" />
            <g transform="translate(10.345 32.118)">
                <path
                    d="M2546.52,948.316s-.381,3.855-.381,3.913c0,6.237-1.232,18.419-1,19.591.572,2.86,6.724,17.449,6.724,17.449l3.325-.4-4.333-17.467,1.594-7.031,2.256-13.9Z"
                    transform="translate(-2545.114 -948.316)" fill="#355389" />
                <path
                    d="M2585.35,958.151l.631,3.654,1.707,15.039,6.5,14.7s-.915,2.139-2.264,2.439l-10.347-15.091-6.427-19.309.225-4.29Z"
                    transform="translate(-2572.786 -954.741)" fill="#5375b5" />
            </g>
            <path
                d="M2546.16,714.089l4.611.472s.212-3.793.212-5.6c0-2.2-.186-5.022-.45-4.961a4.016,4.016,0,0,0-2.334,1.4C2546.14,708.235,2546.16,714.089,2546.16,714.089Z"
                transform="translate(-2535.733 -691.15)" fill="#2aa186" />
            <path
                d="M2553.05,706.868c-.1.669-1.869,18.863-1.869,18.863,8.4,4.068,13.028.725,13.028.725s-.275-12.776.055-14.515c.218-1.151.489-8.8-.254-9.01a18.546,18.546,0,0,0-3.238-.691,30.892,30.892,0,0,0-5.676.071A9.046,9.046,0,0,0,2553.05,706.868Z"
                transform="translate(-2540.357 -689.446)" fill="#50bfa5" />
            <path
                d="M2771.73,1419.41s-1.954,5.521-2.719,5.787c-.2.071-1.178.25-1.361.683a1.864,1.864,0,0,0,0,.565h4.073s.515-2.432.719-3.5a15.93,15.93,0,0,0,.958-2.848C2773.28,1419.86,2771.73,1419.41,2771.73,1419.41Z"
                transform="translate(-2739.727 -1350.131)" fill="#184655" />
            <path
                d="M2583.73,1484.97l-.6-1.9a5.187,5.187,0,0,1-1.887.445,18.967,18.967,0,0,1-1.857-.445c-2.51.829-4.567,1.231-4.193,1.9h8.535Z"
                transform="translate(-2562.44 -1408.776)" fill="#184655" />
            <g transform="translate(9.218 25.955)">
                <path
                    d="M2531.4,874.924a1.086,1.086,0,0,1-.127-.094c.149-1.782.123-3.51-.435-4.094l.262-.557c.646.5.953,1.834.833,4a3.676,3.676,0,0,1-.085.448C2531.66,874.829,2531.49,874.963,2531.4,874.924Z"
                    transform="translate(-2530.834 -870.179)" fill="#f7a491" />
            </g>
            <path
                d="M2722.82,775.591a.521.521,0,0,0,0-.117c-.124-1.26-1.166-11.84-1.342-12.29-.158-.406-4.834-7.117-4.834-7.117l-2.3,3.142,4.5,6.019c.1.383,1.723,7.525,1.723,7.525s.333,1.3.482,2.082c-.068.188-.135.365-.194.511a4.7,4.7,0,0,1-.485.781,5.368,5.368,0,0,0-.574,1.019c-.048.184-.134.566-.182.8s-.115.5-.126.624a1.216,1.216,0,0,1-.145.335.2.2,0,0,0,.237.291c.163-.055.291-.267.369-.4.221-.373.339-1.055.394-1.019s.249,1.192.28,1.323a14.34,14.34,0,0,0,.4,1.719c.131.245.3.2.351.051.04-.132-.145-2.011-.145-2.011s-.023-.24.082-.165.276,1.78.348,2.03.239.382.379.181a7.59,7.59,0,0,0-.123-2.053s-.033-.227.064-.206.218,1.474.293,1.6a.191.191,0,0,0,.356-.039,8.947,8.947,0,0,0-.17-1.859s.014-.128.074-.086.252,1.274.377,1.388a.132.132,0,0,0,.192,0c.229-.157-.122-1.328-.119-1.911a14.383,14.383,0,0,1-.186-1.931A2.169,2.169,0,0,1,2722.82,775.591Z"
                transform="translate(-2690.651 -739.114)" fill="#f8a492" />
            <path
                d="M2696.47,719.921l-3.994,2.691a43.479,43.479,0,0,0-3.46-4.558c-1.514-1.5.551-6.091,1.527-5.832C2692.73,712.8,2696.47,719.921,2696.47,719.921Z"
                transform="translate(-2666.83 -698.717)" fill="#50bfa5" />
            <path
                d="M2628.03,650.734l.6,3.951s-2.182,4.7-3.484,4.3c-1.093-.342-.421-4.505-.421-4.505a11.443,11.443,0,0,0,.417-3.354C2624.96,650,2628.03,650.734,2628.03,650.734Z"
                transform="translate(-2607.91 -641.873)" fill="#f7a491" />
            <path
                d="M2631.51,651.123c-.178-1.119,2.89-.389,2.89-.389l.05.328a1.827,1.827,0,0,1-.333.551,4.033,4.033,0,0,1-2.683,1.219A6.116,6.116,0,0,0,2631.51,651.123Z"
                transform="translate(-2614.278 -641.873)" fill="#f47458" />
            <g transform="translate(15.383)">
                <path
                    d="M2614.23,568.189c.086-.032.7,4.5-.459,5.747s-3.4,1.655-4.212.673c-.893-1.086-.848-5.957.948-7.239S2614.23,568.189,2614.23,568.189Z"
                    transform="translate(-2608.987 -564.918)" fill="#f7a491" />
                <path
                    d="M2618.68,541.153a4.983,4.983,0,0,1,2.617,1.5c.63.075,1.487.424,2.371,1.893a3.682,3.682,0,0,1-.981,4.79,2.866,2.866,0,0,0-1.25,2.117l-.2-.587a3.29,3.29,0,0,1-.159-1.382,2.711,2.711,0,0,1,.2-.831c.3-.656-.654-1.092-.923-1.637-.207-.42-.217-1.381-.543-2.076l-.389-.53a2.47,2.47,0,0,0-1.777-.5C2616.77,544.1,2616.9,540.789,2618.68,541.153Z"
                    transform="translate(-2616.475 -541.125)" fill="#184655" />
                <path
                    d="M2658.95,614.43c-.009.553.241,1.005.559,1.011s.583-.438.593-.991-.241-1.006-.56-1.011S2658.96,613.877,2658.95,614.43Z"
                    transform="translate(-2655.005 -607.734)" fill="#f7a491" />
            </g>
            <path
                d="M2614.85,641.146l-1.741-.09a.764.764,0,0,0,.77.727C2614.81,641.859,2614.85,641.146,2614.85,641.146Z"
                transform="translate(-2597.398 -633.174)" fill="#fff" />
        </g>
        <g transform="translate(2194.384 505.293)">
            <path
                d="M2473.97,638.989s4.767.688,4.039,5.289c-.679,4.289-4.767,3.418-5.817,3.2S2473.97,638.989,2473.97,638.989Z"
                transform="translate(-2450.06 -628.443)" fill="#f7cc7f" />
            <path
                d="M2472.19,701.169c-.489-.1-.137-1.948.379-3.9,1.755.344,3.71.728,5.37,1.056C2477.09,702.2,2473.21,701.377,2472.19,701.169Z"
                transform="translate(-2450.06 -682.131)" fill="#e8ba70" />
            <path
                d="M2399.61,738.081a22.112,22.112,0,0,0-.771,6.643c.257,2.709-.129,3.16-1.135,3.074s-3.45-.688-3.493-1.655.407-5.934,2.1-8.6S2399.61,738.081,2399.61,738.081Z"
                transform="translate(-2378.444 -718.248)" fill="#96d9c9" />
            <path
                d="M2420.6,736.969a11.374,11.374,0,0,1,1.627,1.559,22.11,22.11,0,0,0-.771,6.643c.257,2.709-.129,3.16-1.135,3.074a8.472,8.472,0,0,1-1.5-.3C2418.42,741.292,2420.14,737.722,2420.6,736.969Z"
                transform="translate(-2401.061 -718.695)" fill="#50bfa5" />
            <path
                d="M2265.96,524.106s7.906,5.756,10.461,7.5l1.494,2.225-1.061,6.482-2.555,1.258-12.486,2.467.289-1.4,2.266-6.288,1.157-7.159.337-4.4Z"
                transform="translate(-2256.499 -522.622)" fill="#96d9c9" />
            <path d="M2264.37,657.342l.3-1.877,12.635,3.077-.453,2.766-2.555,1.258-12.486,2.467.289-1.4Z"
                transform="translate(-2256.499 -643.62)" fill="#50bfa5" />
            <path
                d="M2421.76,613.218a14.313,14.313,0,0,1-2.121,9.965.553.553,0,0,0,.209.672l2.357.6s1.093.387,2.014-1.183a12.409,12.409,0,0,0,1.585-8.987,1.762,1.762,0,0,0-1.521-1.247l-1.714-.322S2421.81,612.6,2421.76,613.218Z"
                transform="translate(-2401.836 -604.236)" fill="#3c8f7c" />
            <path
                d="M2203.85,506.777s-2.057-1.516-3.246-1.483-2.378,1.612-3.15,2.9a29.271,29.271,0,0,0-2.989,9.771c-.193,3.418-.161,8.288,1.51,8.868a6.617,6.617,0,0,0,3.728-.129s2.7-2.322,4.275-9.545S2203.85,506.777,2203.85,506.777Z"
                transform="translate(-2194.384 -505.293)" fill="#256653" />
            <path
                d="M2215.3,530.047s-1.922-2.5-.943-9.247c1.543-10.624,5.431-12.231,5.431-12.231s2.878,2.193.129,12.46C2217.65,529.49,2215.3,530.047,2215.3,530.047Z"
                transform="translate(-2212.528 -508.311)" fill="#3c8f7c" />
            <path
                d="M2252.1,611.382a39.146,39.146,0,0,1-.92,4.32c-.219.82-.44,1.564-.659,2.242-1.2-.416-3.129-1.456-2.3-4.1a3.354,3.354,0,0,1,3.879-2.462Z"
                transform="translate(-2243.788 -602.984)" fill="#f7cc7f" />
            <path
                d="M2251.18,646.15c-.22.82-.44,1.564-.659,2.242-1.179-.41-3.076-1.428-2.336-3.988l3.25.752Q2251.32,645.64,2251.18,646.15Z"
                transform="translate(-2243.79 -633.431)" fill="#e8ba70" />
            <path
                d="M2419.64,695.251a12.188,12.188,0,0,0,1.9-4.3l4.177.791a14.345,14.345,0,0,1-1.494,3.6c-.921,1.569-2.014,1.183-2.014,1.183l-2.357-.6A.554.554,0,0,1,2419.64,695.251Z"
                transform="translate(-2401.836 -676.305)" fill="#3c8f7c" opacity="0.3" />
        </g>
        <path
            d="M2446.77,794.055c0-.437-.064-.756-.3-.92a1.861,1.861,0,0,0-.763-.311c-.029.044-.044.5.721,1.089C2446.8,794.118,2446.77,794.055,2446.77,794.055Z"
            transform="translate(-231.496 -264.845)" fill="#f7a491" />
    </g>
</svg>