<svg xmlns="http://www.w3.org/2000/svg" width="81.883" height="109.992" viewBox="0 0 81.883 109.992">
    <g transform="translate(-955.148 -117.209)">
        <g transform="translate(987.528 136.593)">
            <g transform="translate(7.159)">
                <rect width="42.344" height="80.575" fill="#3ac1b0" />
            </g>
            <g transform="translate(9.332 2.219)">
                <rect width="37.873" height="78.388" fill="#14345a" />
            </g>
            <g transform="translate(16.836 2.844)">
                <rect width="30.369" height="77.763" fill="#1e81ad" />
            </g>
            <g transform="translate(3.656 80.727)">
                <rect width="45.809" height="2.742" fill="#f0cd95" />
            </g>
            <g transform="translate(0 83.355)">
                <rect width="45.809" height="2.742" fill="#f0cd95" />
            </g>
            <g transform="translate(12.537 31.1)">
                <path d="M1080.98,257.167a1.173,1.173,0,1,1-1.173-1.172A1.173,1.173,0,0,1,1080.98,257.167Z"
                    transform="translate(-1078.634 -255.995)" fill="#feeccb" />
            </g>
        </g>
        <g transform="translate(981.439 117.214)">
            <path
                d="M1052.86,129.929a12.716,12.716,0,1,0-22.26,8.4,84.988,84.988,0,0,1,7.16,9.127l2.384,3.594,1.7-2.561a76.486,76.486,0,0,1,7.613-9.9A12.662,12.662,0,0,0,1052.86,129.929Z"
                transform="translate(-1027.426 -117.214)" fill="#f4424f" />
            <g transform="translate(5.875 5.875)">
                <circle cx="6.841" cy="6.841" r="6.841" transform="translate(0 0)" fill="#fff" />
            </g>
        </g>
        <g transform="translate(991.107 198.71)">
            <g transform="translate(3.752)">
                <rect width="22.387" height="18.635" fill="#14345a" />
            </g>
            <rect width="22.387" height="18.635" fill="#3ac1b0" />
            <g transform="translate(5.157 4.252)">
                <path d="M1079.07,359.352l-5.443-6.394-5.443,6.394H1071v1.954h5.253v-1.954Z"
                    transform="translate(-1068.184 -352.958)" fill="#f0cd95" />
            </g>
        </g>
        <g transform="translate(955.149 147.339)">
            <g transform="translate(9.638)">
                <g transform="translate(0 5.697)">
                    <path
                        d="M988.185,218.394c-1.881-.643-2.281-1.144-3.524-2.7l-3.016,4.535a19.337,19.337,0,0,0,5.385,3.8C986.758,222.006,987.056,219.744,988.185,218.394Z"
                        transform="translate(-981.645 -215.699)" fill="#f9867d" />
                    <g transform="translate(3.261 0.444)">
                        <path
                            d="M992.742,222.058a5.775,5.775,0,0,1,1.147-2.887,5.608,5.608,0,0,1-3.166-2.25,5.052,5.052,0,0,0,2.019,5.137Z"
                            transform="translate(-990.611 -216.921)" fill="#14345a" />
                    </g>
                </g>
                <g transform="translate(2.195 0.346)">
                    <g transform="translate(0.504 0.332)">
                        <path
                            d="M996.357,204.328a2.3,2.3,0,0,0-1.174-1.711,5.5,5.5,0,0,0-2.049-.626,3.744,3.744,0,0,0-2.694.345,3.013,3.013,0,0,0-1.033,1.476,6.057,6.057,0,0,0,.493,5.057,5.715,5.715,0,0,0,3.729,3.063,18.08,18.08,0,0,0,1.548-3.03c.1-.28-.051-.588,0-.741.062-.186.4-.373.461-.56.267-.838.364-1.353.577-2.206a3.358,3.358,0,0,0,.142-1.067Z"
                            transform="translate(-989.065 -201.901)" fill="#f9867d" />
                    </g>
                    <g transform="translate(0 1.885)">
                        <path
                            d="M991.214,209.2a.556.556,0,0,1,.62-.392.634.634,0,0,1,.423.634,1.425,1.425,0,0,0,.04.8,8.982,8.982,0,0,1,1.241-1.964l-4.2-2a.786.786,0,0,0-.339-.1.593.593,0,0,0-.293.1,1.69,1.69,0,0,0-.714,1.193,8.387,8.387,0,0,0-.033,1.433,2.786,2.786,0,0,1-.276,1.392,4.726,4.726,0,0,0,2.425-.413,1.432,1.432,0,0,1,.994-.22,2.769,2.769,0,0,1,.112-.463Z"
                            transform="translate(-987.68 -206.17)" fill="#14345a" />
                    </g>
                    <path
                        d="M991.734,201.1a4.48,4.48,0,0,1,2.289.1,6.534,6.534,0,0,1,2.4,1.023,1.43,1.43,0,0,1,.545.666,1.721,1.721,0,0,1,.036.639l-.072,1.04a.622.622,0,0,1-.825.7,10.417,10.417,0,0,1-3.446-.668,11.807,11.807,0,0,0-2.094-.952.975.975,0,0,1-.487-.191.729.729,0,0,1-.059-.771,2.64,2.64,0,0,1,1.713-1.586Z"
                        transform="translate(-989.12 -200.988)" fill="#14345a" />
                </g>
                <g transform="translate(2.859)">
                    <path
                        d="M994,200.409a14.11,14.11,0,0,1,2.3,1.057,1.062,1.062,0,0,1,.664,1.4,15.2,15.2,0,0,1-.668,2.312,13.053,13.053,0,0,1-5.9-1.647c-.429-.24-.9-.59-.892-1.081a1.47,1.47,0,0,1,.23-.67,3.934,3.934,0,0,1,.88-1.226,2.523,2.523,0,0,1,1.656-.517,5.543,5.543,0,0,1,1.73.372Z"
                        transform="translate(-989.506 -200.036)" fill="#f4424f" />
                    <g transform="translate(4.547 1.009)">
                        <path
                            d="M1004.63,205.228a2.1,2.1,0,0,0,.1-1.129,1.5,1.5,0,0,0-.754-.845,9.786,9.786,0,0,0-1.073-.443,1.327,1.327,0,0,1,.231.823,3.174,3.174,0,0,1-.168.852,10.813,10.813,0,0,1-.953,2.191,4.6,4.6,0,0,0,.966.151,1.548,1.548,0,0,0,.929-.257A2.333,2.333,0,0,0,1004.63,205.228Z"
                            transform="translate(-1002.008 -202.811)" fill="#f2d525" />
                    </g>
                    <g transform="translate(3.641 4.577)">
                        <path
                            d="M1002.78,212.624c.445.019.478.312,2.009.842a2.806,2.806,0,0,1-2.585.4,21.481,21.481,0,0,1-2.688-1.171,17.288,17.288,0,0,0,3.264-.071Z"
                            transform="translate(-999.516 -212.62)" fill="#f4424f" />
                    </g>
                    <g transform="translate(0.306 1.411)">
                        <path
                            d="M991,204.15a.251.251,0,0,0-.118-.157.259.259,0,0,0-.194-.076c-.069.014-.114.08-.15.141a1.068,1.068,0,0,0-.188.472.367.367,0,0,0,.259.392l.348-.634A.247.247,0,0,0,991,204.15Z"
                            transform="translate(-990.348 -203.915)" fill="#14345a" />
                    </g>
                </g>
                <g transform="translate(5.115 5.345)">
                    <g transform="translate(0.269 2.076)">
                        <path
                            d="M1000.12,221.038c-.047-.181-.058-.423-.22-.516a.876.876,0,0,0-.442-.084c-.765.005-.857.079-1.622.094-.273.709-.993,1.142-1.383,1.8.259.292.33.932.689,1.086a7.988,7.988,0,0,0,1.116.354.412.412,0,0,0,.534-.129c.171-.191.268-.346.439-.537a5.459,5.459,0,0,0,.793-.979A1.428,1.428,0,0,0,1000.12,221.038Z"
                            transform="translate(-996.449 -220.438)" fill="#fff" />
                    </g>
                    <path
                        d="M996.385,219.062a.146.146,0,0,1-.035,0c-.255-.068-.427-.311-.511-.724a6.585,6.585,0,0,1,.249-3.513.136.136,0,1,1,.257.091,6.313,6.313,0,0,0-.239,3.367c.062.3.167.476.313.515a.136.136,0,0,1-.035.268Z"
                        transform="translate(-995.708 -214.73)" fill="#fff" />
                    <g transform="translate(1.491 0.406)">
                        <path
                            d="M1000.27,218.15a.136.136,0,0,1-.118-.068,2.538,2.538,0,0,1-.186-2.148.137.137,0,1,1,.256.1,2.263,2.263,0,0,0,.165,1.915.13.13,0,0,1-.117.2Z"
                            transform="translate(-999.807 -215.845)" fill="#fff" />
                    </g>
                </g>
            </g>
            <g transform="translate(8.452 12.084)">
                <path
                    d="M1001.43,252.547a7.73,7.73,0,0,1-1.148-1.44,1.137,1.137,0,0,1-.161-.351.43.43,0,0,1,.072-.367.9.9,0,0,1,.479-.2.765.765,0,0,0,.451-.312.455.455,0,0,0-.02-.524c-.634.316-1.411.022-2.1.2a4.524,4.524,0,0,0-.907.414,7.822,7.822,0,0,1-1.5-.685l-.011.024c-5.524-3.506-11.42-11.714-13.853-15.374-2.876-1.439-4.628-.5-4.315,2.251,1.71,9.971,10.731,14.656,16.86,15.983l-.06.132c.519.128,1.03.288,1.536.463a6.209,6.209,0,0,0,1.567,1.125,1,1,0,0,0,.706.141c.218-.063.385-.259.609-.3.175-.028.355.046.529.012.281-.054.444-.364.713-.459a2.373,2.373,0,0,1,.433-.057.384.384,0,0,0,.336-.24C1001.69,252.818,1001.56,252.667,1001.43,252.547Z"
                    transform="translate(-978.386 -233.258)" fill="#14345a" />
            </g>
            <g transform="translate(26.453 24.356)">
                <g transform="translate(0 2.501)">
                    <rect width="15.477" height="2.564" fill="#f4424f" />
                    <g transform="translate(0 1.939)">
                        <rect width="15.477" height="0.625" fill="#14345a" />
                    </g>
                </g>
                <g transform="translate(2.282)">
                    <rect width="15.477" height="2.564" fill="#f4424f" />
                    <g transform="translate(0 1.86)">
                        <rect width="15.477" height="0.704" fill="#14345a" />
                    </g>
                </g>
                <g transform="translate(0.734 4.878)">
                    <rect width="15.477" height="2.564" fill="#f4424f" />
                </g>
            </g>
            <g transform="translate(1.812 32.76)">
                <g transform="translate(5.148 42.266)">
                    <g transform="translate(0.006 3.07)">
                        <path
                            d="M982.3,415.284l-.058-.543a66.053,66.053,0,0,1-7.054.151,1.663,1.663,0,0,0-.479.03c-.156.041-.259-.046-.337.1s-.11.544.013.655c1.247.2,2.516.115,3.775.186a18.694,18.694,0,0,0,2.13.085,3.587,3.587,0,0,0,2.01-.664Z"
                            transform="translate(-974.3 -414.741)" fill="#fff" />
                    </g>
                    <path
                        d="M978.561,410.191a7.216,7.216,0,0,0,3.747-.53,1.422,1.422,0,0,0-.806-1.172,4.755,4.755,0,0,0-1.432-.4,3.384,3.384,0,0,1-1.4-.493,1.276,1.276,0,0,1-.56-1.289,21.9,21.9,0,0,1-3.411.1,11.524,11.524,0,0,0-.409,3.554Q976.425,410.1,978.561,410.191Z"
                        transform="translate(-974.284 -406.302)" fill="#14345a" />
                    <g transform="translate(3.529 1.184)">
                        <path
                            d="M984.07,409.563a.223.223,0,0,1,.174.044,6.418,6.418,0,0,0,2.82.842.914.914,0,0,1-.69.312,2.714,2.714,0,0,1-.77-.118,2.773,2.773,0,0,1-1.528-.754.35.35,0,0,1-.088-.168A.144.144,0,0,1,984.07,409.563Z"
                            transform="translate(-983.986 -409.557)" fill="#d62d41" />
                        <g transform="translate(0.31 0.069)">
                            <path
                                d="M985,410.643a.148.148,0,0,1-.132-.236,4.557,4.557,0,0,1,.552-.621.148.148,0,0,1,.2.216,4.237,4.237,0,0,0-.516.581.149.149,0,0,1-.1.06Z"
                                transform="translate(-984.838 -409.746)" fill="#fff" />
                        </g>
                        <g transform="translate(0.936 0.365)">
                            <path
                                d="M986.72,411.4a.148.148,0,0,1-.139-.226,2.867,2.867,0,0,1,.475-.578.148.148,0,0,1,.2.216,2.575,2.575,0,0,0-.425.518.148.148,0,0,1-.111.07Z"
                                transform="translate(-986.559 -410.56)" fill="#fff" />
                        </g>
                        <g transform="translate(1.691 0.534)">
                            <path
                                d="M988.795,411.788a.148.148,0,0,1-.145-.215,2.166,2.166,0,0,1,.351-.5.148.148,0,0,1,.216.2,1.836,1.836,0,0,0-.3.433.149.149,0,0,1-.122.082Z"
                                transform="translate(-988.634 -411.025)" fill="#fff" />
                        </g>
                    </g>
                </g>
                <path
                    d="M965.572,333.87h4.919c-.338-14.01.124-28.041,1.175-42.006a16.688,16.688,0,0,1-8.207-1.633l-2.208-.13c-2.061,7.891-.955,16.368.691,24.38C963.265,320.916,964.932,327.333,965.572,333.87Z"
                    transform="translate(-960.129 -290.101)" fill="#14345a" />
            </g>
            <g transform="translate(0.725 32.76)">
                <g transform="translate(2.836 42.481)">
                    <g transform="translate(0 3.411)">
                        <path
                            d="M973.549,416.812q-.031-.272-.063-.543c-2.527.173-5.063.229-7.6.151a1.924,1.924,0,0,0-.516.03c-.168.041-.279-.046-.363.1s-.119.544.014.655c1.343.2,2.71.115,4.065.186a21.678,21.678,0,0,0,2.293.085A4.067,4.067,0,0,0,973.549,416.812Z"
                            transform="translate(-964.939 -416.269)" fill="#fff" />
                    </g>
                    <g transform="translate(0.04)">
                        <path
                            d="M969.613,411.042a7.708,7.708,0,0,0,4-.566,1.518,1.518,0,0,0-.86-1.252,5.072,5.072,0,0,0-1.528-.431,3.614,3.614,0,0,1-1.491-.526,1.362,1.362,0,0,1-.6-1.376,23.4,23.4,0,0,1-3.641.106,12.31,12.31,0,0,0-.436,3.793Q967.334,410.947,969.613,411.042Z"
                            transform="translate(-965.048 -406.891)" fill="#14345a" />
                    </g>
                    <g transform="translate(3.958 0.939)">
                        <path
                            d="M975.916,409.475a.223.223,0,0,1,.169.058,6.421,6.421,0,0,0,2.74,1.074.915.915,0,0,1-.714.254,2.713,2.713,0,0,1-.758-.182,2.77,2.77,0,0,1-1.459-.88.347.347,0,0,1-.074-.175.144.144,0,0,1,.1-.149Z"
                            transform="translate(-975.82 -409.472)" fill="#d62d41" />
                        <g transform="translate(0.252 0.141)">
                            <path
                                d="M976.663,410.711a.148.148,0,0,1-.112-.246,4.538,4.538,0,0,1,.6-.573.148.148,0,1,1,.184.232,4.233,4.233,0,0,0-.563.535A.147.147,0,0,1,976.663,410.711Z"
                                transform="translate(-976.514 -409.86)" fill="#fff" />
                        </g>
                        <g transform="translate(0.856 0.482)">
                            <path
                                d="M978.321,411.6a.148.148,0,0,1-.119-.236,2.87,2.87,0,0,1,.521-.536.148.148,0,0,1,.184.232,2.587,2.587,0,0,0-.467.48A.147.147,0,0,1,978.321,411.6Z"
                                transform="translate(-978.173 -410.796)" fill="#fff" />
                        </g>
                        <g transform="translate(1.6 0.703)">
                            <path
                                d="M980.369,412.139a.148.148,0,0,1-.126-.226,2.186,2.186,0,0,1,.392-.47.149.149,0,0,1,.2.221,1.855,1.855,0,0,0-.338.406A.149.149,0,0,1,980.369,412.139Z"
                                transform="translate(-980.221 -411.405)" fill="#fff" />
                        </g>
                    </g>
                </g>
                <path
                    d="M959.9,333.87h5.8c-.264-14.162,1.935-28.041,2.987-42.006a16.688,16.688,0,0,1-8.207-1.633l-2.208-.13c-2.061,7.891-.956,16.368.691,24.38C960.277,320.916,959.763,327.086,959.9,333.87Z"
                    transform="translate(-957.141 -290.101)" fill="#f4424f" />
                <g transform="translate(6.296 1.545)">
                    <path
                        d="M979.692,294.567a16.379,16.379,0,0,1-3.759-.219c-1.1,13.933-2.332,28.248-.677,42.225h1.449C976.442,322.411,978.64,308.532,979.692,294.567Z"
                        transform="translate(-974.451 -294.348)" fill="#d62d41" />
                </g>
                <g transform="translate(0.811 2.93)">
                    <rect width="11.395" height="1.317" fill="#14345a" />
                </g>
                <g transform="translate(3.907 2.7)">
                    <rect width="0.56" height="1.778" fill="#f4424f" />
                </g>
                <g transform="translate(9.621 2.7)">
                    <rect width="0.56" height="1.778" fill="#f4424f" />
                </g>
            </g>
            <g transform="translate(0 9.18)">
                <g transform="translate(0 0.546)">
                    <path
                        d="M964.589,226.891a23.992,23.992,0,0,0-7.109,12.075,71.352,71.352,0,0,0-2.323,12.742,1.52,1.52,0,0,0,1.689,1.671,31.624,31.624,0,0,1,10.58.123,1.226,1.226,0,0,0,1.463-1.217c-.006-5.335,2.951-11.229,2.852-13.785a33.234,33.234,0,0,0-.928-5.582c-.1-.54-.2-1.147-.287-1.78a23.6,23.6,0,0,1-5.845-4.364Z"
                        transform="translate(-955.149 -226.774)" fill="#f4424f" />
                </g>
                <g transform="translate(6.664 1.408)">
                    <path
                        d="M982.47,234.427c-.1-.54-.2-1.147-.287-1.78a21.677,21.677,0,0,1-4.927-3.5c-3.5,3.723.334,8.785-.756,13.143-.75,3.377-3,6-2.251,9.38,0,.375.375,1.5.375,1.876a8.824,8.824,0,0,1-1.154.965,25.876,25.876,0,0,1,5.614.5,1.226,1.226,0,0,0,1.463-1.217c-.006-5.335,2.951-11.229,2.852-13.785A33.261,33.261,0,0,0,982.47,234.427Z"
                        transform="translate(-973.47 -229.144)" fill="#d62d41" />
                </g>
                <g transform="translate(7.549 4.165)">
                    <path
                        d="M975.992,240.579a15.955,15.955,0,0,0,6.712,10.854l1-3.207a16.559,16.559,0,0,1-6.5-11.5,2.622,2.622,0,0,0-1.2,1.715,5.856,5.856,0,0,0-.017,2.138Z"
                        transform="translate(-975.903 -236.724)" fill="#14345a" />
                </g>
                <g transform="translate(8.904)">
                    <path
                        d="M980.8,225.274l-1.174,1.034a61.629,61.629,0,0,1,5.679,5.132,1.854,1.854,0,0,1,.649-1.384c.124.214.143.93.268,1.145a2.725,2.725,0,0,0,.107-2.236,4.833,4.833,0,0,0-1.4-1.131Z"
                        transform="translate(-979.629 -225.274)" fill="#fff" />
                </g>
                <g transform="translate(2.923 5.081)">
                    <path
                        d="M966.7,239.43a.224.224,0,0,0-.331-.159,1.237,1.237,0,0,0-.371.366,16.479,16.479,0,0,0-2.731,6.013,2.167,2.167,0,0,0-.082.556c.006.18.073.344.18.347s.208-.137.3-.269a24.99,24.99,0,0,0,2.935-6.1A1.421,1.421,0,0,0,966.7,239.43Z"
                        transform="translate(-963.186 -239.243)" fill="#f2d525" />
                </g>
            </g>
            <g transform="translate(7.907 12.493)">
                <path
                    d="M981.237,235.053c-2.876-1.439-4.627-.5-4.315,2.251,1.876,10.943,12.561,15.521,18.561,16.278,1.063-.053,1.472-1.436,1.676-2.066C991.112,249.073,983.978,239.175,981.237,235.053Z"
                    transform="translate(-976.886 -234.383)" fill="#f4424f" />
                <g transform="translate(16.835 16.02)">
                    <path
                        d="M1029.38,281.7a7.734,7.734,0,0,1-1.148-1.44,1.138,1.138,0,0,1-.162-.351.43.43,0,0,1,.072-.367.9.9,0,0,1,.479-.2.764.764,0,0,0,.451-.312.455.455,0,0,0-.021-.524c-.634.316-1.411.022-2.1.2a4.52,4.52,0,0,0-.907.414,7.826,7.826,0,0,1-1.5-.685l-1.38,3.015c.519.128,1.03.288,1.536.463a6.209,6.209,0,0,0,1.567,1.125,1,1,0,0,0,.706.141c.218-.063.385-.259.609-.3.175-.028.355.046.529.012.28-.054.444-.364.713-.459a2.377,2.377,0,0,1,.433-.057.384.384,0,0,0,.336-.24C1029.64,281.966,1029.5,281.815,1029.38,281.7Z"
                        transform="translate(-1023.17 -278.426)" fill="#fff" />
                </g>
                <g transform="translate(1.336 2.352)">
                    <path
                        d="M980.6,242.456a1.754,1.754,0,0,0,.053.96,1.794,1.794,0,0,0,1.85,1.19,1.91,1.91,0,0,0,1.571-1.321,1.984,1.984,0,0,0-.553-1.986,1.572,1.572,0,0,0-1.373-.418A2.107,2.107,0,0,0,980.6,242.456Z"
                        transform="translate(-980.56 -240.85)" fill="#f2d525" />
                </g>
            </g>
        </g>
    </g>
</svg>