<svg xmlns="http://www.w3.org/2000/svg" width="117.817" height="75.166" viewBox="0 0 117.817 75.166">
    <g transform="translate(-831.548 -698.842)">
        <path d="M844.8,754.4l-13.211,68.3a2.252,2.252,0,0,0,2.211,2.679h6.968Z" transform="translate(0 -51.416)"
            fill="#ed7d2b" />
        <path d="M902.381,747.68l-8.758,67.067a3.715,3.715,0,0,0,3.684,4.2h12.847l-7.243-71.5Z"
            transform="translate(-57.42 -44.975)" fill="#78acea" />
        <path d="M962.755,750.689l-3.92,66.639a4.367,4.367,0,0,0,4.359,4.623h19.161Z"
            transform="translate(-117.794 -47.983)" fill="#699dee" />
        <path d="M1009.56,757.988l1.906,66.1a4.367,4.367,0,0,0,4.359,4.623h19.161Z"
            transform="translate(-164.751 -54.738)" fill="#5288d8" />
        <path
            d="M1110.9,818.327h-75.549a3.906,3.906,0,0,1-3.842-3.2l-11.5-62.867a4.648,4.648,0,0,1,4.572-5.484h74.66a3.906,3.906,0,0,1,3.842,3.2l11.656,63.742a3.906,3.906,0,0,1-3.839,4.609Z"
            transform="translate(-174.346 -44.359)" fill="#d7e9ff" />
        <path d="M1011.76,760.421h83.54l-2.142-11.87a2.163,2.163,0,0,0-2.128-1.779h-80.919a.708.708,0,0,0-.7.836Z"
            transform="translate(-164.604 -44.359)" fill="#f99746" />
        <g transform="translate(845.49 698.842)">
            <path
                d="M1022.27,698.842a3.625,3.625,0,0,0-3.622,3.621h.7a2.927,2.927,0,1,1,3.883,2.765,2.89,2.89,0,0,1-.79.157v.7a3.575,3.575,0,0,0,.925-.164,3.622,3.622,0,0,0-1.092-7.075Z"
                transform="translate(-1018.643 -698.842)" fill="#78acea" />
            <path d="M1062.8,781.229a.805.805,0,0,1-.028.209.787.787,0,1,1,.028-.209Z"
                transform="translate(-1058.057 -774.364)" fill="#78acea" />
        </g>
        <g transform="translate(858.476 698.842)">
            <path
                d="M1196.52,698.842a3.625,3.625,0,0,0-3.622,3.621h.7a2.924,2.924,0,1,1,3.092,2.922v.7a3.576,3.576,0,0,0,.925-.164,3.621,3.621,0,0,0-1.091-7.075Z"
                transform="translate(-1192.899 -698.842)" fill="#78acea" />
            <path d="M1237.05,781.229a.806.806,0,0,1-.028.209.789.789,0,1,1,.028-.209Z"
                transform="translate(-1232.303 -774.364)" fill="#78acea" />
        </g>
        <g transform="translate(871.461 698.842)">
            <path
                d="M1370.78,698.842a3.625,3.625,0,0,0-3.622,3.621h.695a2.925,2.925,0,1,1,3.093,2.922v.7a3.581,3.581,0,0,0,.925-.164,3.622,3.622,0,0,0-1.091-7.075Z"
                transform="translate(-1367.155 -698.842)" fill="#78acea" />
            <path d="M1411.3,781.229a.806.806,0,0,1-.028.209.789.789,0,1,1,.028-.209Z"
                transform="translate(-1406.559 -774.364)" fill="#78acea" />
        </g>
        <g transform="translate(884.447 698.842)">
            <path
                d="M1545.03,698.842a3.624,3.624,0,0,0-3.621,3.621h.7a2.927,2.927,0,1,1,3.883,2.765,2.887,2.887,0,0,1-.79.157v.7a3.583,3.583,0,0,0,.926-.164,3.622,3.622,0,0,0-1.092-7.075Z"
                transform="translate(-1541.411 -698.842)" fill="#78acea" />
            <path d="M1585.56,781.229a.811.811,0,0,1-.028.209.787.787,0,1,1,.028-.209Z"
                transform="translate(-1580.815 -774.364)" fill="#78acea" />
        </g>
        <g transform="translate(897.432 698.842)">
            <path
                d="M1719.28,698.842a3.625,3.625,0,0,0-3.622,3.621h.7a2.927,2.927,0,1,1,3.883,2.765,2.887,2.887,0,0,1-.79.157v.7a3.576,3.576,0,0,0,.926-.164,3.621,3.621,0,0,0-1.091-7.075Z"
                transform="translate(-1715.656 -698.842)" fill="#78acea" />
            <path d="M1759.8,781.229a.811.811,0,0,1-.028.209.787.787,0,1,1,.028-.209Z"
                transform="translate(-1755.059 -774.364)" fill="#78acea" />
        </g>
        <g transform="translate(910.417 698.842)">
            <path
                d="M1893.53,698.842a3.625,3.625,0,0,0-3.622,3.621h.695a2.927,2.927,0,1,1,3.883,2.765,2.881,2.881,0,0,1-.79.157v.7a3.577,3.577,0,0,0,.926-.164,3.622,3.622,0,0,0-1.091-7.075Z"
                transform="translate(-1889.912 -698.842)" fill="#78acea" />
            <path d="M1934.06,781.229a.811.811,0,0,1-.028.209.787.787,0,1,1,.028-.209Z"
                transform="translate(-1929.316 -774.364)" fill="#78acea" />
        </g>
        <g transform="translate(923.403 698.842)">
            <path
                d="M2067.79,698.842a3.624,3.624,0,0,0-3.621,3.621h.7a2.927,2.927,0,1,1,3.884,2.765,2.9,2.9,0,0,1-.791.157v.7a3.577,3.577,0,0,0,.926-.164,3.622,3.622,0,0,0-1.092-7.075Z"
                transform="translate(-2064.168 -698.842)" fill="#78acea" />
            <path d="M2108.31,781.229a.816.816,0,0,1-.028.209.787.787,0,1,1,.028-.209Z"
                transform="translate(-2103.572 -774.364)" fill="#78acea" />
        </g>
        <path
            d="M1613.41,1154.65h-4.223a1.132,1.132,0,0,1-1.059-.888l-.815-4.223a.713.713,0,0,1,.717-.888h4.223a1.132,1.132,0,0,1,1.059.888l.815,4.223a.713.713,0,0,1-.717.888Z"
            transform="translate(-717.936 -416.29)" fill="#afcdfb" />
        <path
            d="M1756.41,1154.65h-4.223a1.132,1.132,0,0,1-1.059-.888l-.815-4.223a.713.713,0,0,1,.716-.888h4.223a1.132,1.132,0,0,1,1.059.888l.815,4.223a.713.713,0,0,1-.716.888Z"
            transform="translate(-850.281 -416.29)" fill="#afcdfb" />
        <path
            d="M1899.41,1154.65h-4.223a1.132,1.132,0,0,1-1.059-.888l-.815-4.223a.713.713,0,0,1,.717-.888h4.223a1.132,1.132,0,0,1,1.059.888l.815,4.223a.713.713,0,0,1-.717.888Z"
            transform="translate(-982.627 -416.29)" fill="#78acea" />
        <path
            d="M1184.4,1154.65h-4.223a1.132,1.132,0,0,1-1.059-.888l-.815-4.223a.713.713,0,0,1,.716-.888h4.223a1.132,1.132,0,0,1,1.059.888l.815,4.223a.713.713,0,0,1-.716.888Z"
            transform="translate(-320.901 -416.29)" fill="#afcdfb" />
        <path
            d="M1165.58,1026.99h-1.815a.486.486,0,0,1-.455-.381l-.35-1.815a.306.306,0,0,1,.308-.381h1.815a.487.487,0,0,1,.455.381l.35,1.815a.306.306,0,0,1-.308.381Z"
            transform="translate(-306.712 -301.313)" fill="#f99746" />
        <path
            d="M1327.4,1154.65h-4.223a1.132,1.132,0,0,1-1.059-.888l-.815-4.223a.713.713,0,0,1,.716-.888h4.223a1.132,1.132,0,0,1,1.059.888l.815,4.223a.713.713,0,0,1-.716.888Z"
            transform="translate(-453.246 -416.29)" fill="#afcdfb" />
        <path
            d="M1470.4,1154.65h-4.223a1.132,1.132,0,0,1-1.059-.888l-.815-4.223a.713.713,0,0,1,.717-.888h4.223a1.132,1.132,0,0,1,1.059.888l.815,4.223a.713.713,0,0,1-.717.888Z"
            transform="translate(-585.591 -416.29)" fill="#afcdfb" />
        <path
            d="M2042.41,1154.65h-4.223a1.132,1.132,0,0,1-1.059-.888l-.815-4.223a.713.713,0,0,1,.716-.888h4.223a1.132,1.132,0,0,1,1.059.888l.815,4.223a.713.713,0,0,1-.716.888Z"
            transform="translate(-1114.972 -416.29)" fill="#78acea" />
        <path
            d="M1589.66,1031.57h-4.223a1.132,1.132,0,0,1-1.059-.888l-.815-4.223a.713.713,0,0,1,.716-.888h4.223a1.132,1.132,0,0,1,1.059.888l.815,4.223a.713.713,0,0,1-.716.888Z"
            transform="translate(-695.963 -302.378)" fill="#afcdfb" />
        <path
            d="M1732.67,1031.57h-4.223a1.132,1.132,0,0,1-1.059-.888l-.815-4.223a.713.713,0,0,1,.716-.888h4.223a1.132,1.132,0,0,1,1.059.888l.814,4.223a.713.713,0,0,1-.715.888Z"
            transform="translate(-828.309 -302.378)" fill="#afcdfb" />
        <path
            d="M1875.67,1031.57h-4.223a1.132,1.132,0,0,1-1.059-.888l-.814-4.223a.713.713,0,0,1,.716-.888h4.223a1.132,1.132,0,0,1,1.059.888l.814,4.223a.713.713,0,0,1-.716.888Z"
            transform="translate(-960.653 -302.378)" fill="#78acea" />
        <path
            d="M2018.67,1031.57h-4.223a1.132,1.132,0,0,1-1.059-.888l-.815-4.223a.714.714,0,0,1,.717-.888h4.223a1.132,1.132,0,0,1,1.059.888l.815,4.223a.713.713,0,0,1-.717.888Z"
            transform="translate(-1092.998 -302.378)" fill="#78acea" />
        <path
            d="M1638.57,1285.1h-4.223a1.132,1.132,0,0,1-1.059-.888l-.815-4.223a.713.713,0,0,1,.717-.888h4.223a1.133,1.133,0,0,1,1.059.888l.814,4.223a.713.713,0,0,1-.716.888Z"
            transform="translate(-741.226 -537.022)" fill="#afcdfb" />
        <path
            d="M1781.57,1285.1h-4.223a1.132,1.132,0,0,1-1.059-.888l-.814-4.223a.713.713,0,0,1,.716-.888h4.223a1.132,1.132,0,0,1,1.059.888l.815,4.223a.713.713,0,0,1-.717.888Z"
            transform="translate(-873.57 -537.022)" fill="#afcdfb" />
        <path
            d="M1924.57,1285.1h-4.223a1.132,1.132,0,0,1-1.059-.888l-.815-4.223a.713.713,0,0,1,.716-.888h4.223a1.132,1.132,0,0,1,1.059.888l.815,4.223a.713.713,0,0,1-.716.888Z"
            transform="translate(-1005.916 -537.022)" fill="#78acea" />
        <path
            d="M1209.56,1285.1h-4.223a1.132,1.132,0,0,1-1.059-.888l-.815-4.223a.713.713,0,0,1,.716-.888h4.223a1.132,1.132,0,0,1,1.059.888l.815,4.223a.713.713,0,0,1-.716.888Z"
            transform="translate(-344.19 -537.022)" fill="#afcdfb" />
        <path
            d="M1352.57,1285.1h-4.223a1.132,1.132,0,0,1-1.059-.888l-.815-4.223a.713.713,0,0,1,.717-.888h4.223a1.132,1.132,0,0,1,1.059.888l.815,4.223a.713.713,0,0,1-.717.888Z"
            transform="translate(-476.535 -537.022)" fill="#afcdfb" />
        <path
            d="M1495.57,1285.1h-4.223a1.132,1.132,0,0,1-1.059-.888l-.815-4.223a.713.713,0,0,1,.716-.888h4.223a1.133,1.133,0,0,1,1.059.888l.815,4.223a.713.713,0,0,1-.716.888Z"
            transform="translate(-608.88 -537.022)" fill="#afcdfb" />
        <path
            d="M2067.57,1285.1h-4.223a1.132,1.132,0,0,1-1.059-.888l-.815-4.223a.713.713,0,0,1,.717-.888h4.223a1.132,1.132,0,0,1,1.059.888l.815,4.223a.713.713,0,0,1-.717.888Z"
            transform="translate(-1138.261 -537.022)" fill="#78acea" />
        <path
            d="M1663.73,1415.56h-4.223a1.132,1.132,0,0,1-1.059-.888l-.815-4.223a.713.713,0,0,1,.717-.888h4.223a1.132,1.132,0,0,1,1.059.888l.815,4.223a.713.713,0,0,1-.717.888Z"
            transform="translate(-764.514 -657.756)" fill="#afcdfb" />
        <path
            d="M1806.74,1415.56h-4.223a1.132,1.132,0,0,1-1.059-.888l-.815-4.223a.713.713,0,0,1,.716-.888h4.223a1.132,1.132,0,0,1,1.059.888l.815,4.223a.713.713,0,0,1-.716.888Z"
            transform="translate(-896.86 -657.756)" fill="#afcdfb" />
        <path
            d="M1949.74,1415.56h-4.223a1.132,1.132,0,0,1-1.059-.888l-.815-4.223a.713.713,0,0,1,.716-.888h4.223a1.132,1.132,0,0,1,1.059.888l.815,4.223a.713.713,0,0,1-.716.888Z"
            transform="translate(-1029.204 -657.756)" fill="#78acea" />
        <path
            d="M1234.73,1415.56h-4.223a1.132,1.132,0,0,1-1.059-.888l-.815-4.223a.713.713,0,0,1,.716-.888h4.223a1.132,1.132,0,0,1,1.059.888l.815,4.223a.713.713,0,0,1-.716.888Z"
            transform="translate(-367.479 -657.756)" fill="#afcdfb" />
        <path
            d="M1377.73,1415.56h-4.223a1.132,1.132,0,0,1-1.059-.888l-.815-4.223a.713.713,0,0,1,.716-.888h4.223a1.132,1.132,0,0,1,1.059.888l.815,4.223a.713.713,0,0,1-.716.888Z"
            transform="translate(-499.824 -657.756)" fill="#f99746" />
        <path
            d="M1520.73,1415.56h-4.223a1.132,1.132,0,0,1-1.059-.888l-.815-4.223a.713.713,0,0,1,.716-.888h4.223a1.132,1.132,0,0,1,1.059.888l.815,4.223a.713.713,0,0,1-.716.888Z"
            transform="translate(-632.169 -657.756)" fill="#afcdfb" />
        <path
            d="M2092.74,1415.56h-4.223a1.132,1.132,0,0,1-1.059-.888l-.815-4.223a.713.713,0,0,1,.716-.888h4.223a1.132,1.132,0,0,1,1.059.888l.815,4.223a.713.713,0,0,1-.716.888Z"
            transform="translate(-1161.55 -657.756)" fill="#78acea" />
        <path
            d="M1687.48,1538.64h-4.223a1.132,1.132,0,0,1-1.059-.888l-.814-4.223a.713.713,0,0,1,.716-.888h4.223a1.132,1.132,0,0,1,1.059.888l.815,4.223a.713.713,0,0,1-.717.888Z"
            transform="translate(-786.487 -771.668)" fill="#afcdfb" />
        <path
            d="M1830.48,1538.64h-4.223a1.132,1.132,0,0,1-1.059-.888l-.815-4.223a.713.713,0,0,1,.716-.888h4.223a1.132,1.132,0,0,1,1.059.888l.815,4.223a.713.713,0,0,1-.716.888Z"
            transform="translate(-918.833 -771.668)" fill="#afcdfb" />
        <path
            d="M1973.48,1538.64h-4.223a1.132,1.132,0,0,1-1.059-.888l-.815-4.223a.713.713,0,0,1,.716-.888h4.223a1.132,1.132,0,0,1,1.059.888l.815,4.223a.713.713,0,0,1-.716.888Z"
            transform="translate(-1051.178 -771.668)" fill="#78acea" />
        <path
            d="M1258.47,1538.64h-4.223a1.132,1.132,0,0,1-1.059-.888l-.815-4.223a.713.713,0,0,1,.716-.888h4.223a1.132,1.132,0,0,1,1.059.888l.815,4.223a.713.713,0,0,1-.716.888Z"
            transform="translate(-389.452 -771.668)" fill="#afcdfb" />
        <path
            d="M1401.47,1538.64h-4.223a1.132,1.132,0,0,1-1.059-.888l-.815-4.223a.713.713,0,0,1,.716-.888h4.223a1.132,1.132,0,0,1,1.059.888l.815,4.223a.713.713,0,0,1-.716.888Z"
            transform="translate(-521.797 -771.668)" fill="#afcdfb" />
        <path
            d="M1544.47,1538.64h-4.223a1.132,1.132,0,0,1-1.059-.888l-.815-4.223a.713.713,0,0,1,.716-.888h4.223a1.132,1.132,0,0,1,1.059.888l.815,4.223a.713.713,0,0,1-.716.888Z"
            transform="translate(-654.142 -771.668)" fill="#afcdfb" />
        <path d="M1227.3,1029.2h-11.188a.3.3,0,0,1-.3-.3h0a.3.3,0,0,1,.3-.3H1227.3a.3.3,0,0,1,.3.3h0a.3.3,0,0,1-.3.3Z"
            transform="translate(-355.63 -305.183)" fill="#afcdfb" />
        <path d="M1231.87,1047.38h-11.188a.3.3,0,0,1-.3-.3h0a.3.3,0,0,1,.3-.3h11.188a.3.3,0,0,1,.3.3h0a.3.3,0,0,1-.3.3Z"
            transform="translate(-359.855 -322.01)" fill="#afcdfb" />
        <path
            d="M1154.17,887.046h-3.839a.574.574,0,0,1-.572-.572h0a.573.573,0,0,1,.572-.572h3.839a.573.573,0,0,1,.572.572h0a.573.573,0,0,1-.572.572Z"
            transform="translate(-294.496 -173.12)" fill="#fff" />
        <path
            d="M1295.54,887.046h-3.84a.574.574,0,0,1-.572-.572h0a.573.573,0,0,1,.572-.572h3.839a.573.573,0,0,1,.572.572h0a.574.574,0,0,1-.571.572Z"
            transform="translate(-425.329 -173.12)" fill="#fff" />
        <path
            d="M1436.9,887.046h-3.839a.574.574,0,0,1-.572-.572h0a.573.573,0,0,1,.572-.572h3.839a.574.574,0,0,1,.572.572h0a.574.574,0,0,1-.572.572Z"
            transform="translate(-556.162 -173.12)" fill="#fff" />
        <path
            d="M1578.27,887.046h-3.839a.574.574,0,0,1-.572-.572h0a.574.574,0,0,1,.572-.572h3.839a.573.573,0,0,1,.572.572h0a.574.574,0,0,1-.572.572Z"
            transform="translate(-686.994 -173.12)" fill="#fff" />
        <path
            d="M1719.64,887.046h-3.84a.574.574,0,0,1-.572-.572h0a.574.574,0,0,1,.572-.572h3.839a.573.573,0,0,1,.572.572h0a.573.573,0,0,1-.571.572Z"
            transform="translate(-817.828 -173.12)" fill="#fff" />
        <path
            d="M1861.01,887.046h-3.839a.574.574,0,0,1-.572-.572h0a.573.573,0,0,1,.572-.572h3.839a.573.573,0,0,1,.572.572h0a.574.574,0,0,1-.572.572Z"
            transform="translate(-948.66 -173.12)" fill="#fff" />
        <path
            d="M2002.37,887.046h-3.839a.574.574,0,0,1-.572-.572h0a.574.574,0,0,1,.572-.572h3.839a.573.573,0,0,1,.572.572h0a.574.574,0,0,1-.572.572Z"
            transform="translate(-1079.494 -173.12)" fill="#fff" />
        <path
            d="M1705.54,1014.43a2,2,0,0,1-1.8-.791c-.645-1-.147-2.405,1.48-4.172a20.63,20.63,0,0,1,2.591-2.323.124.124,0,1,1,.145.2c-.054.04-5.4,4-4.01,6.166a2.134,2.134,0,0,0,2.1.648,11.5,11.5,0,0,0,4.623-1.91,7.89,7.89,0,0,0,3.14-3.336c.243-.683.168-1.167-.224-1.438a3.8,3.8,0,0,0-2.828,0,8.93,8.93,0,0,0-3.182,1.574.123.123,0,0,1-.158-.187,9.189,9.189,0,0,1,3.275-1.623,3.946,3.946,0,0,1,3.033.036c.34.235.67.725.315,1.722a8.124,8.124,0,0,1-3.235,3.458,11.753,11.753,0,0,1-4.731,1.949,4.7,4.7,0,0,1-.534.027Z"
            transform="translate(-806.945 -285.158)" fill="#c65447" />
        <path
            d="M1989.31,972.994l-.436-.822a2.457,2.457,0,0,0-1.62-2.392.9.9,0,0,0-1.05.274c-.349.5.665.413.611,1.275a1.586,1.586,0,0,0,.924,1.649l.471.545Z"
            transform="translate(-1068.548 -250.684)" fill="#ffb27d" />
        <path
            d="M2024.23,983.858a14.543,14.543,0,0,1-10.253,10.267c-2.708.789-8.861-8.127-8.861-8.127s.216-.822,1.572-.633c0,0,5.991,3.966,6.745,4.4.669.382,5.07-4.915,7.077-5.769A5.12,5.12,0,0,1,2024.23,983.858Z"
            transform="translate(-1086.118 -263.513)" fill="#233862" />
        <g transform="translate(910.726 718.358)">
            <rect width="1.909" height="9.604" transform="translate(2.369 3.725) rotate(-100.493)" fill="#c65447" />
            <path d="M1894.05,986.866l2.369.532-.348-1.877Z" transform="translate(-1894.051 -983.673)" fill="#ffb27d" />
            <path
                d="M2049.12,961.248l.11.593a.673.673,0,0,1-.539.784l-.437.081-.348-1.877.475-.088a.633.633,0,0,1,.739.507Z"
                transform="translate(-2036.441 -960.729)" fill="#ffb27d" />
        </g>
        <g transform="translate(928.944 737.859)">
            <path
                d="M2352.18,1634.38s1.076.982.866,1.68-1.181,1.163-1.312,2.016-.656,1.318-1.129,1.318h-2.253s-.348-.6.492-.781,1.157-1.183,1.1-2.114a16.405,16.405,0,0,1,.079-2.171l1.785-.414Z"
                transform="translate(-2332.652 -1603.245)" fill="#233862" />
            <path
                d="M2144.84,1663.5s.193,2.235-.279,2.468l-6.047-.012s0-.7.971-.853,2.677-.724,2.967-1.99S2144.84,1663.5,2144.84,1663.5Z"
                transform="translate(-2138.517 -1629.83)" fill="#233862" />
            <path
                d="M2154.9,1243.77s.319,3.918.694,8.629c.51,6.4,1.122,14.258,1.183,15.747.1,2.586.525,6.721.525,6.721a3.338,3.338,0,0,0,2.993.568,66.733,66.733,0,0,0,2.286-12.15l.023-.309c.473-6.359,1.207-19.749,1.207-19.749Z"
                transform="translate(-2153.681 -1241.671)" fill="#f99746" />
            <path d="M2154.9,1243.77s.319,3.918.694,8.629l6.987,10.886.023-.309c.473-6.359,1.207-19.749,1.207-19.749Z"
                transform="translate(-2153.681 -1241.671)" fill="#ed7d2b" />
            <path
                d="M2174.45,1224.97s5.749,14.191,9.529,20.86,4.962,8.53,4.962,8.53,2.166-.853,2.363-1.435c0,0-1.446-12.875-3.977-16.014-1.431-1.773-3.111-7.1-3.19-8.957s-.512-5.545-.512-5.545Z"
                transform="translate(-2171.771 -1222.41)" fill="#f99746" />
        </g>
        <path
            d="M2199.79,904.744s-3.89,1.877-6.133,1.181a5.293,5.293,0,0,1,1.518-1.214c-.078-.45-.138-.841-.173-1.172a10.846,10.846,0,0,1-.1-1.2l1.5-1.18,1.423-1.13A5.734,5.734,0,0,0,2199.79,904.744Z"
            transform="translate(-1260.608 -186.195)" fill="#ffb27d" />
        <path
            d="M2150.64,974.052a.351.351,0,0,0,.233.093,37.71,37.71,0,0,0,5.381.238,15.9,15.9,0,0,0,4.977-1.409c.224-.1.734-.374.725-.611-.009-.272-.034-.654-.069-1.147-.07-.97-.168-2.348-.2-3.981-.023-1.211-.01-2.562.078-3.993,0-.1.01-.193.014-.29.025-.525.037-1.053.037-1.57a27.234,27.234,0,0,0-.353-4.671c-.423-2.463-1.217-4.391-2.389-5.249-.156-.119-1.122.348-2.019.781a3.731,3.731,0,0,1-2.415.289l-.776.679a7.665,7.665,0,0,0-2.433,3.822,42.474,42.474,0,0,0-.726,7.083c-.06,1.291-.1,2.581-.12,3.813v.042c-.009.127-.009.256-.009.383C2150.54,971.5,2150.58,974.01,2150.64,974.052Z"
            transform="translate(-1220.722 -233.776)" fill="#2b478b" />
        <path d="M2213.39,915.273a5.152,5.152,0,0,1-2.855,2.293,10.787,10.787,0,0,1-.095-1.2l1.5-1.18Z"
            transform="translate(-1276.139 -200.224)" fill="#ed985f" />
        <path
            d="M2192.27,855.26s3.71.607,4.059-1.674,1.062-3.739-1.293-4.223-2.949.318-3.253,1.052S2191.31,855.044,2192.27,855.26Z"
            transform="translate(-1258.65 -139.167)" fill="#ffb27d" />
        <path
            d="M2182.78,831.878c.034-.039.111-.07.284-.079a.7.7,0,0,0-.323-.091.87.87,0,0,0-.578-.77.519.519,0,0,1,.251.374c-.479-.492-1.506-.851-4.35-.626-3.748.3-2.513,2.7-2.028,2.982s1.707-.5,2.611-.427,1.076,1.378,1.383,1.557.186-.138.6-.325.455.5.335.947.45,1.037.45,1.037l.576-.62a6.455,6.455,0,0,0,.857-3.809Z"
            transform="translate(-1243.755 -121.956)" fill="#2c3a64" />
        <path
            d="M2008.61,983.593a.714.714,0,0,0-.222-.731c-.35-.231-.672-.843-.819-.76-.305.173.167.711.081,1.382C2007.62,983.719,2008.16,984.335,2008.61,983.593Z"
            transform="translate(-1088.285 -262.144)" fill="#ffb27d" />
        <path
            d="M2271.64,1068.57c-.023-1.211-.01-2.562.078-3.993,0-.1.01-.193.014-.29-.353-1.748-.886-3.3-1.672-3.349C2270.06,1060.94,2267.72,1064.61,2271.64,1068.57Z"
            transform="translate(-1330.674 -335.11)" fill="#233862" />
        <path
            d="M2311.73,1243.61a11.768,11.768,0,0,1-.409,2.255,8.068,8.068,0,0,1-1.513,1.73c-.388.225.237-1.51.158-1.848s-.32.616-.49.639-.127-.836-.133-1.148.832-1.084,1.128-1.749S2311.73,1243.61,2311.73,1243.61Z"
            transform="translate(-1367.67 -503.813)" fill="#ffb27d" />
        <path
            d="M2242.71,951.442a9.8,9.8,0,0,1,3.474,2.821c1.746,2.651,3.77,12.314,3.808,13.209s-1.477,7.212-1.477,7.212-1.536-.1-1.933-.877c0,0,.307-6.491.112-6.908s-6.4-8.707-5.706-10.475S2242.71,951.442,2242.71,951.442Z"
            transform="translate(-1304.358 -233.776)" fill="#2b478b" />
        <path d="M1895.27,992.732l.124,1.108-1.338-.3Z" transform="translate(-983.325 -271.99)" fill="#c65447" />
    </g>
</svg>