<svg xmlns="http://www.w3.org/2000/svg" width="47.88" height="47.88" viewBox="0 0 47.88 47.88"><g transform="translate(-29.752 -27.185) rotate(18)"><circle cx="19" cy="19" r="19" transform="translate(47.867 13.033)" fill="#ffd669"/><g transform="translate(49.481 22.139)"><path d="M62.457,35.793a10.837,10.837,0,0,1-7.86-4.725.8.8,0,0,1,1.33-.891,9.2,9.2,0,0,0,16.488-2.613.8.8,0,1,1,1.54.438,10.785,10.785,0,0,1-11.5,7.791Z" transform="translate(-46.51 -16.426)" fill="#231f20"/><path d="M51.531,27.723a.8.8,0,0,1-.706-.671,4.935,4.935,0,1,1,9.749-1.543.8.8,0,0,1-1.582.25A3.334,3.334,0,1,0,52.406,26.8a.8.8,0,0,1-.665.916A.831.831,0,0,1,51.531,27.723Z" transform="translate(-47.888 -18.529)" fill="#231f20"/><path d="M64.474,25.673a.8.8,0,0,1-.707-.67,4.936,4.936,0,1,1,9.75-1.544.8.8,0,0,1-1.583.25,3.334,3.334,0,1,0-6.586,1.043.8.8,0,0,1-.666.916.711.711,0,0,1-.208.005Z" transform="translate(-43.063 -19.293)" fill="#231f20"/></g></g></svg>